<svg width="194" height="148" viewBox="0 0 194 148" fill="none" xmlns="http://www.w3.org/2000/svg">
<path d="M191.776 29.3121C185.211 7.54276 163.752 0.507385 163.752 0.507385L186.103 74.5829C186.103 74.5829 199.028 53.3552 191.776 29.3121Z" fill="#89A426"/>
<path d="M16.2873 0.498169L164.001 0.498169L155.586 5.94642H7.8717L16.2873 0.498169Z" fill="#BCDE40"/>
<path d="M8 5.94641L18.9928 5.94642L39.4857 74.3991L28.4929 74.3991L8 5.94641Z" fill="#89A426"/>
<path d="M149.83 9.47556L163.987 0.483826L186.393 74.488H166.959L149.83 9.47556Z" fill="#89A426"/>
<path d="M18.0731 5.94641L155.507 5.94642L176 75.3991L38.566 75.3991L18.0731 5.94641Z" fill="black"/>
<rect x="16.6731" y="74.4871" width="162.71" height="62.6051" fill="#7356C6"/>
<rect x="16.936" y="124.197" width="162.447" height="4.10626" fill="#9378DF"/>
<rect x="16.936" y="110.018" width="162.447" height="4.10626" fill="#9378DF"/>
<rect x="16.936" y="95.8395" width="162.447" height="4.10626" fill="#9378DF"/>
<rect y="145.988" width="10.3573" height="120.01" transform="rotate(-90 0 145.988)" fill="white"/>
<rect y="147.975" width="10.3573" height="120.01" transform="rotate(-90 0 147.975)" fill="#BCDE40"/>
<rect y="85.6188" width="11.1364" height="120.01" transform="rotate(-90 0 85.6188)" fill="#BCDE40"/>
<rect x="52.1982" y="74.4871" width="16.6731" height="61.1435" fill="#89A426"/>
<rect x="52" y="74" width="14" height="74" fill="#BCDE40"/>
<rect x="52.9861" y="75.5197" width="11.9765" height="0.975119" fill="white"/>
<rect x="75.5961" y="68.7286" width="4.07751" height="37.2188" fill="#89A426"/>
<rect x="75.5961" y="85.7029" width="5.27014" height="20.2444" fill="#89A426"/>
<rect x="75.5961" y="66.483" width="4.07751" height="8.10282" fill="#89A426"/>
<rect x="44.0228" y="66.483" width="31.5733" height="39.517" fill="#BCDE40"/>
<rect x="44.0228" y="66.483" width="31.5733" height="0.987726" fill="white"/>
<path fill-rule="evenodd" clip-rule="evenodd" d="M62.3887 93.3269C64.0363 92.4052 65.1521 90.6278 65.1521 88.5865C65.1521 85.5977 62.7601 83.1748 59.8095 83.1748C56.8589 83.1748 54.4669 85.5977 54.4669 88.5865C54.4669 90.6278 55.5827 92.4052 57.2303 93.3269V102.19H62.3887V93.3269Z" fill="black"/>
<path fill-rule="evenodd" clip-rule="evenodd" d="M59.4322 83.1881C57.7426 84.1492 56.6011 85.9817 56.6011 88.0842C56.6011 90.2009 57.7581 92.0439 59.4665 92.9996V102.19L57.2303 102.19V93.3269C55.5827 92.4052 54.4669 90.6278 54.4669 88.5865C54.4669 85.7262 56.6576 83.3842 59.4322 83.1881Z" fill="#89A426"/>
<rect x="3.19824" y="85.4529" width="16.6731" height="50.1776" fill="#89A426"/>
<rect y="74.4871" width="14.5532" height="73.4875" fill="#BCDE40"/>
<rect x="0.986084" y="75.5197" width="11.9765" height="0.975119" fill="white"/>
<rect x="108.845" y="74.4871" width="16.6731" height="63.1302" fill="#89A426"/>
<rect x="105.647" y="74.4871" width="14.5532" height="73.4875" fill="#BCDE40"/>
<rect x="106.633" y="75.5197" width="11.9765" height="0.975119" fill="white"/>
<rect width="3.19823" height="50.7766" transform="matrix(-1 0 0 1 169.732 85.6188)" fill="#BCDE40"/>
<rect width="16.6731" height="73.4875" transform="matrix(-1 0 0 1 186.405 74.4871)" fill="#89A426"/>
<rect width="16.6731" height="73.4875" transform="matrix(-1 0 0 1 136.683 74.4871)" fill="#89A426"/>
<rect width="11.1317" height="49.7221" transform="matrix(8.93032e-09 -1 -1 -1.59236e-08 169.732 85.6188)" fill="#89A426"/>
<path d="M169.732 136.395L166.473 133.395L136.683 133.395L136.683 136.395L169.732 136.395Z" fill="white"/>
<rect width="11.5791" height="49.7221" transform="matrix(8.93032e-09 -1 -1 -1.59236e-08 169.732 147.975)" fill="#89A426"/>
<path d="M79.6736 85.531V74.4871H85.0132V85.531H79.6736Z" fill="#4B5B0F"/>
<rect x="81" y="86" width="3" height="23" fill="#483975"/>
<rect x="80.8441" y="85.6188" width="24.8026" height="7.46149" fill="#9378DF"/>
<rect x="19.8713" y="85.6188" width="24.1515" height="7.46149" fill="#9378DF"/>
<rect x="136.683" y="85.6188" width="29.8508" height="7.46149" fill="#9378DF"/>
<path d="M81 106L81 109L69 109L69 106L81 106Z" fill="#483975"/>
<path d="M66 106L66 109L52 109L52 106L66 106Z" fill="#89A426"/>
<path d="M69 106L69 108.476L66 109L66 106L69 106Z" fill="#89A426"/>
<rect x="179.383" y="76.4948" width="3.74089" height="67.0473" fill="white"/>
<path d="M123.341 145.926L125.341 142.185L183.124 142.185L183.124 145.926L123.341 145.926Z" fill="white"/>
<path fill-rule="evenodd" clip-rule="evenodd" d="M17.3929 5.94641L38.1034 74.5829C38.1034 74.5829 51.0276 53.3552 43.7765 29.3121C40.291 17.7546 32.6073 10.35 26.1656 5.94641H17.3929Z" fill="#282626" fill-opacity="0.7"/>
<path d="M16.6731 0.507396L161.245 0.507385L158.545 2.32211H16.6731V0.507396Z" fill="white"/>
</svg>
