<svg width="1400" height="1400" viewBox="0 0 1400 1400" fill="none" xmlns="http://www.w3.org/2000/svg">
<rect width="1400" height="1400" rx="700" fill="#FFEBB8"/>
<path fill-rule="evenodd" clip-rule="evenodd" d="M879.917 561.542C918.074 529.846 960.652 517.786 1001.48 520.835C1045.04 524.087 1085.34 544.411 1115.44 573.933C1145.54 603.458 1166.22 642.945 1169.53 685.565C1172.88 728.571 1158.41 773.614 1120.28 813.147C1116.79 816.786 1113.22 820.38 1109.58 823.929C936.617 993.552 706.853 993.998 704.502 994H704.49C703.316 994 472.825 993.991 299.407 823.905L299.369 823.866C295.79 820.334 292.264 816.779 288.791 813.201L288.763 813.171C250.61 773.674 236.133 728.641 239.462 685.635C242.761 643.024 263.427 603.529 293.52 573.996C323.611 544.464 363.912 524.123 407.475 520.857C448.303 517.796 490.886 529.841 529.067 561.522C533.173 512.658 554.562 474.628 585.61 448.484C618.725 420.599 661.878 407 704.491 407C747.104 407 790.259 420.599 823.372 448.484C854.425 474.632 875.817 512.669 879.917 561.542ZM712.411 976.802L712.401 976.585H712.416L712.411 976.802ZM696.574 976.802L696.569 976.585H696.581L696.574 976.802ZM834.44 741.265C829.707 741.265 828.07 747.969 831.089 751.519C836.433 757.809 839.649 765.898 839.649 774.726C839.649 794.756 823.093 810.994 802.669 810.994C782.248 810.994 765.691 794.756 765.691 774.726C765.691 773.654 764.265 773.122 763.621 773.99C757.789 781.847 753.852 790.666 752.235 799.927C751.323 805.143 747.001 809.463 741.571 809.463H738.572C731.483 809.463 725.637 803.827 726.683 796.998C733.852 750.204 780.877 716.263 834.44 716.263C888 716.263 935.025 750.204 942.197 796.998C943.243 803.827 937.394 809.463 930.308 809.463C923.219 809.463 917.606 803.798 916.066 797.059C909.055 766.386 876.556 741.265 834.44 741.265ZM506.067 774.726C506.067 773.313 504.199 772.554 503.32 773.678C497.085 781.659 492.837 790.694 491.041 800.218C489.978 805.845 485.312 810.519 479.441 810.519H477.24C470.152 810.519 464.305 804.883 465.349 798.054C472.517 751.233 519.547 717.319 573.108 717.319C626.669 717.319 673.697 751.233 680.865 798.054C681.911 804.883 676.064 810.519 668.976 810.519C661.888 810.519 656.277 804.855 654.737 798.114C647.729 767.424 615.231 742.322 573.108 742.322C569.28 742.322 567.878 747.593 570.441 750.364C576.396 756.803 580.025 765.349 580.025 774.726C580.025 794.756 563.468 810.994 543.047 810.994C522.624 810.994 506.067 794.756 506.067 774.726ZM745.629 862.189C750.638 857.305 758.38 854.931 764.599 858.241C770.82 861.552 773.179 869.238 768.696 874.586C754.097 892.003 730.461 903.04 704.392 903.04C678.337 903.04 654.65 892.119 640.031 874.57C635.566 869.208 637.953 861.53 644.185 858.241C650.417 854.953 658.148 857.357 663.149 862.248C672.785 871.67 687.406 878.039 704.392 878.039C721.334 878.039 735.973 871.605 745.629 862.189Z" fill="#272E29"/>
</svg>
