<svg width="256" height="203" viewBox="0 0 256 203" fill="none" xmlns="http://www.w3.org/2000/svg">
<path d="M82.5 1L95.386 30.8409L123.351 14.2733L116.236 45.9894L148.598 49.0233L124.2 70.5L148.598 91.9767L116.236 95.0106L123.351 126.727L95.386 110.159L82.5 140L69.614 110.159L41.6489 126.727L48.764 95.0106L16.4016 91.9767L40.8 70.5L16.4016 49.0233L48.764 45.9894L41.6489 14.2733L69.614 30.8409L82.5 1Z" fill="#603918"/>
<path d="M69.5 0L82.386 29.8409L110.351 13.2733L103.236 44.9894L135.598 48.0233L111.2 69.5L135.598 90.9767L103.236 94.0106L110.351 125.727L82.386 109.159L69.5 139L56.614 109.159L28.6489 125.727L35.764 94.0106L3.40157 90.9767L27.8 69.5L3.40157 48.0233L35.764 44.9894L28.6489 13.2733L56.614 29.8409L69.5 0Z" fill="#F59D5D"/>
<rect x="76.5747" y="131.193" width="191.493" height="77.6611" fill="#211445"/>
<path d="M95.3765 79.0745H236.671L254.126 115.497H84.738L95.3765 79.0745Z" fill="#7356C6"/>
<rect x="85.0178" y="102.049" width="172.82" height="4.36845" fill="#9378DF"/>
<rect x="85.0178" y="86.9643" width="161.229" height="4.36845" fill="#9378DF"/>
<rect x="67.0005" y="125.831" width="11.9769" height="127.673" transform="rotate(-90 67.0005 125.831)" fill="#CADD86"/>
<rect x="194.673" y="125.831" width="11.9769" height="70.6346" transform="rotate(-90 194.673 125.831)" fill="#89A426"/>
<path fill-rule="evenodd" clip-rule="evenodd" d="M260.609 113.854C259.986 94.2813 244.388 78.6116 225.238 78.6116C206.088 78.6116 190.491 94.2813 189.868 113.854H202.653C203.254 101.332 213.136 91.3726 225.238 91.3726C237.341 91.3726 247.223 101.332 247.824 113.854L260.609 113.854ZM189.848 114.98C189.848 115.01 189.848 115.04 189.848 115.071C189.848 115.101 189.848 115.131 189.848 115.161L189.848 114.98Z" fill="#CADD86"/>
<path fill-rule="evenodd" clip-rule="evenodd" d="M265.361 113.854C264.738 93.9416 249.141 78 229.99 78C210.84 78 195.243 93.9416 194.62 113.854H207.405C208.006 101.114 217.888 90.9825 229.99 90.9825C242.093 90.9825 251.975 101.114 252.576 113.854L265.361 113.854Z" fill="#89A426"/>
<path fill-rule="evenodd" clip-rule="evenodd" d="M257.834 109.44C256.686 100.089 251.534 91.9936 244.168 86.9643C253.136 91.2173 260.985 98.7925 261.817 109.444C261.148 109.401 260.473 109.38 259.794 109.38C259.135 109.38 258.482 109.4 257.834 109.44Z" fill="white"/>
<path fill-rule="evenodd" clip-rule="evenodd" d="M85.9068 113.854C88.4496 94.3095 105.015 79.369 125.179 79.0588C122.565 78.4957 119.852 78 117.069 78C96.7323 78 80.0946 93.8387 78.8186 113.854H85.9068Z" fill="#89A426"/>
<path fill-rule="evenodd" clip-rule="evenodd" d="M82.2411 113.854C83.3542 96.393 96.1585 82.1106 112.911 78.7496C115.134 78.3036 115.894 78.1278 116.726 78C114.693 78 107.214 78 105.33 78C84.9929 78 68.3551 93.8387 67.0791 113.854H82.2411Z" fill="#CADD86"/>
<path fill-rule="evenodd" clip-rule="evenodd" d="M140.485 113.854C143.028 94.3096 159.594 79.369 179.757 79.0588C177.143 78.4957 174.43 78.0001 171.648 78.0001C151.311 78.0001 134.673 93.8388 133.397 113.854H140.485Z" fill="#89A426"/>
<path fill-rule="evenodd" clip-rule="evenodd" d="M136.82 113.854C137.934 96.393 150.738 82.1106 167.49 78.7496C169.713 78.3036 170.473 78.1278 171.306 78C169.272 78 161.793 78 159.909 78C139.572 78 122.934 93.8387 121.658 113.854H136.82Z" fill="#CADD86"/>
<path fill-rule="evenodd" clip-rule="evenodd" d="M129.499 109.44C130.811 98.7491 136.701 89.4946 145.122 83.745C134.87 88.6072 127.245 98.0676 124.945 109.444C125.71 109.395 126.481 109.37 127.259 109.37C128.011 109.37 128.758 109.394 129.499 109.44Z" fill="white"/>
<path fill-rule="evenodd" clip-rule="evenodd" d="M75.256 109.44C76.5686 98.7491 82.4581 89.4946 90.8795 83.745C80.6268 88.6071 73.0023 98.0676 70.7021 109.444C71.4671 109.395 72.2386 109.37 73.0158 109.37C73.7681 109.37 74.5151 109.394 75.256 109.44Z" fill="white"/>
<path fill-rule="evenodd" clip-rule="evenodd" d="M194.675 113.854C195.788 96.393 208.592 82.1106 225.344 78.7496C227.568 78.3036 228.328 78.1278 229.16 78.0001C227.126 78.0001 219.648 78.0001 217.764 78.0001C197.426 78.0001 180.789 93.8387 179.513 113.854H194.675Z" fill="#CADD86"/>
<path fill-rule="evenodd" clip-rule="evenodd" d="M187.648 109.44C188.961 98.7491 194.85 89.4946 203.272 83.745C193.019 88.6072 185.394 98.0676 183.094 109.444C183.859 109.395 184.631 109.37 185.408 109.37C186.16 109.37 186.907 109.394 187.648 109.44Z" fill="white"/>
<rect x="84.738" y="126.932" width="173.1" height="66.6025" fill="#7356C6"/>
<rect x="85.0176" y="179.816" width="172.82" height="4.36845" fill="#9378DF"/>
<rect x="85.0178" y="164.732" width="172.82" height="4.36845" fill="#9378DF"/>
<rect x="85.0178" y="149.648" width="172.82" height="4.36845" fill="#9378DF"/>
<rect x="67.0005" y="202.998" width="11.0186" height="127.673" transform="rotate(-90 67.0005 202.998)" fill="white"/>
<rect x="67.0005" y="205.112" width="11.0186" height="127.673" transform="rotate(-90 67.0005 205.112)" fill="#CADD86"/>
<rect x="67" y="138.775" width="11.8474" height="127.673" transform="rotate(-90 67 138.775)" fill="#CADD86"/>
<rect x="122.531" y="126.932" width="17.7377" height="65.0475" fill="#89A426"/>
<rect x="122.32" y="126.932" width="14.4623" height="78.1797" fill="#CADD86"/>
<rect x="123.37" y="128.031" width="12.7412" height="1.03738" fill="white"/>
<rect x="146.789" y="120.554" width="5.31925" height="39.3625" fill="#89A426"/>
<rect x="147.423" y="138.603" width="5.60665" height="21.2621" fill="#89A426"/>
<rect x="146.789" y="118.426" width="5.31925" height="8.51081" fill="#89A426"/>
<rect x="113.834" y="118.417" width="33.5893" height="41.5036" fill="#CADD86"/>
<rect x="113.834" y="118.417" width="33.5893" height="1.03738" fill="white"/>
<path fill-rule="evenodd" clip-rule="evenodd" d="M133.372 146.61C135.125 145.642 136.312 143.776 136.312 141.632C136.312 138.493 133.767 135.948 130.628 135.948C127.489 135.948 124.945 138.493 124.945 141.632C124.945 143.776 126.132 145.642 127.884 146.61V155.919H133.372V146.61Z" fill="#403F76"/>
<path fill-rule="evenodd" clip-rule="evenodd" d="M130.227 135.962C128.43 136.971 127.215 138.896 127.215 141.104C127.215 143.327 128.446 145.263 130.264 146.267V155.919L133.372 155.919H127.884V146.61C126.132 145.642 124.945 143.776 124.945 141.632C124.945 138.628 127.275 136.168 130.227 135.962Z" fill="#89A426"/>
<rect x="70.4033" y="138.598" width="17.7377" height="53.3815" fill="#89A426"/>
<rect x="67.0005" y="126.932" width="15.4824" height="78.1797" fill="#CADD86"/>
<rect x="68.0496" y="128.031" width="12.7412" height="1.03738" fill="white"/>
<rect x="182.795" y="126.932" width="17.7377" height="67.1611" fill="#89A426"/>
<rect x="179.393" y="126.932" width="15.4824" height="78.1797" fill="#CADD86"/>
<rect x="180.442" y="128.031" width="12.7412" height="1.03738" fill="white"/>
<rect width="3.40244" height="54.0188" transform="matrix(-1 0 0 1 247.57 138.775)" fill="#CADD86"/>
<rect width="17.7377" height="78.1797" transform="matrix(-1 0 0 1 265.308 126.932)" fill="#89A426"/>
<rect width="17.7377" height="78.1797" transform="matrix(-1 0 0 1 212.41 126.932)" fill="#89A426"/>
<rect width="11.8425" height="52.8969" transform="matrix(7.42786e-09 -1 -1 -1.48557e-08 247.57 138.775)" fill="#89A426"/>
<path d="M247.57 192.793L244.102 189.602L212.411 189.602L212.411 192.793L247.57 192.793Z" fill="white"/>
<rect width="12.3185" height="52.8969" transform="matrix(7.42786e-09 -1 -1 -1.48557e-08 247.57 205.112)" fill="#89A426"/>
<path d="M152.108 125.873V118.426L156.364 120.388V125.873H152.108Z" fill="#4B5B0F"/>
<path d="M152.108 138.64V126.937H156.364V138.64H152.108Z" fill="#4B5B0F"/>
<rect x="153.006" y="138.774" width="26.3863" height="7.93791" fill="#9378DF"/>
<rect x="88.1404" y="138.775" width="25.6936" height="7.93791" fill="#9378DF"/>
<rect x="212.411" y="138.775" width="31.7568" height="7.93791" fill="#9378DF"/>
<path d="M136.783 159.92L136.783 163.299L122.32 163.299L122.32 159.92L136.783 159.92Z" fill="#89A426"/>
<path d="M140.25 159.92L140.25 162.709L136.72 163.299L136.72 159.92L140.25 159.92Z" fill="#89A426"/>
<path d="M198.216 202.932L200.344 198.953L261.817 198.953L261.817 202.932L198.216 202.932Z" fill="white"/>
<rect x="152.108" y="138.64" width="4.2554" height="24.4686" fill="#403F76"/>
<path d="M153.172 159.917L153.172 163.108L140.406 163.108L140.406 159.917L153.172 159.917Z" fill="#403F76"/>
</svg>
