<svg width="199" height="139" viewBox="0 0 199 139" fill="none" xmlns="http://www.w3.org/2000/svg">
<rect x="15.1582" y="51.3628" width="180" height="73" transform="rotate(4.47582 15.1582 51.3628)" fill="#211445"/>
<path d="M36.6005 3.90138L169.01 14.266L182.695 49.6788L23.9592 37.2534L36.6005 3.90138Z" fill="#7356C6"/>
<rect x="25.2079" y="24.6708" width="162.447" height="4.10626" transform="rotate(4.47582 25.2079 24.6708)" fill="#9378DF"/>
<rect x="26.3143" y="10.5351" width="151.552" height="4.10626" transform="rotate(4.47582 26.3143 10.5351)" fill="#9378DF"/>
<rect x="6.57898" y="45.6357" width="11.2581" height="120.01" transform="rotate(-85.5242 6.57898 45.6357)" fill="#CADD86"/>
<rect x="126.223" y="55.0011" width="11.2581" height="66.3952" transform="rotate(-85.5242 126.223 55.0011)" fill="#89A426"/>
<path fill-rule="evenodd" clip-rule="evenodd" d="M188.891 48.614C189.743 30.2267 176.276 14.3983 158.33 12.9935C140.384 11.5888 124.618 25.1289 122.598 43.4248L134.579 44.3627C136.061 32.6723 146.052 24.0643 157.394 24.952C168.735 25.8398 177.265 35.8976 176.91 47.6762L188.891 48.614Z" fill="#CADD86"/>
<path fill-rule="evenodd" clip-rule="evenodd" d="M193.344 48.9626C194.221 30.257 180.774 14.1738 162.828 12.769C144.882 11.3643 129.096 25.1592 127.051 43.7734L139.033 44.7113C140.53 32.8172 150.534 24.0473 161.875 24.935C173.217 25.8228 181.734 36.0425 181.363 48.0248L193.344 48.9626Z" fill="#89A426"/>
<path fill-rule="evenodd" clip-rule="evenodd" d="M186.614 44.2746C186.224 35.4269 181.99 27.4629 175.456 22.2095C183.548 26.853 190.348 34.5275 190.347 44.5706C189.723 44.4813 189.092 44.4114 188.455 44.3615C187.838 44.3132 187.224 44.2844 186.614 44.2746Z" fill="white"/>
<path fill-rule="evenodd" clip-rule="evenodd" d="M25.1747 35.7988C28.9912 17.6702 45.6112 4.88432 64.5293 6.07269C62.121 5.35332 59.615 4.68979 57.0076 4.48569C37.9495 2.99388 21.1961 16.6161 18.5322 35.2788L25.1747 35.7988Z" fill="#89A426"/>
<path fill-rule="evenodd" clip-rule="evenodd" d="M21.7397 35.5299C24.0637 19.2488 37.1105 6.80386 53.0559 4.88313C55.1719 4.62825 55.8971 4.51924 56.6865 4.46057C54.7805 4.31137 47.7723 3.76279 46.0067 3.62458C26.9485 2.13276 10.1952 15.755 7.53122 34.4177L21.7397 35.5299Z" fill="#CADD86"/>
<path fill-rule="evenodd" clip-rule="evenodd" d="M76.3213 39.8024C80.1378 21.6738 96.7578 8.88794 115.676 10.0763C113.268 9.35694 110.762 8.69341 108.154 8.48931C89.0961 6.99749 72.3428 20.6197 69.6788 39.2824L76.3213 39.8024Z" fill="#89A426"/>
<path fill-rule="evenodd" clip-rule="evenodd" d="M72.8863 39.5335C75.2103 23.2524 88.2571 10.8075 104.203 8.88675C106.319 8.63186 107.044 8.52285 107.833 8.46418C105.927 8.31499 98.9189 7.76641 97.1533 7.6282C78.0951 6.13638 61.3418 19.7586 58.6778 38.4213L72.8863 39.5335Z" fill="#CADD86"/>
<path fill-rule="evenodd" clip-rule="evenodd" d="M66.3495 34.8601C68.3637 24.938 74.5618 16.6975 82.8753 11.9272C72.9107 15.7315 65.0716 24.0378 62.0816 34.5303C62.8021 34.5405 63.5269 34.5738 64.2552 34.6308C64.9602 34.686 65.6585 34.7626 66.3495 34.8601Z" fill="white"/>
<path fill-rule="evenodd" clip-rule="evenodd" d="M15.5176 30.8811C17.5318 20.959 23.7298 12.7185 32.0433 7.94825C22.0788 11.7526 14.2397 20.0588 11.2497 30.5514C11.9702 30.5615 12.6949 30.5948 13.4233 30.6518C14.1283 30.707 14.8266 30.7836 15.5176 30.8811Z" fill="white"/>
<path fill-rule="evenodd" clip-rule="evenodd" d="M127.103 43.7775C129.427 27.4964 142.474 15.0514 158.419 13.1307C160.535 12.8758 161.261 12.7668 162.05 12.7081C160.144 12.5589 153.136 12.0103 151.37 11.8721C132.312 10.3803 115.559 24.0025 112.895 42.6653L127.103 43.7775Z" fill="#CADD86"/>
<path fill-rule="evenodd" clip-rule="evenodd" d="M120.842 39.1256C122.856 29.2035 129.054 20.963 137.368 16.1928C127.403 19.9971 119.564 28.3033 116.574 38.7959C117.295 38.806 118.02 38.8393 118.748 38.8963C119.453 38.9515 120.151 39.0281 120.842 39.1256Z" fill="white"/>
<rect x="186.622" y="44.2222" width="3.74089" height="13.8552" transform="rotate(4.47582 186.622 44.2222)" fill="white"/>
<rect x="23.1204" y="47.969" width="162.71" height="62.6051" transform="rotate(4.47582 23.1204 47.969)" fill="#7356C6"/>
<rect x="19.5033" y="97.5482" width="162.447" height="4.10626" transform="rotate(4.47582 19.5033 97.5482)" fill="#9378DF"/>
<rect x="20.6097" y="83.4125" width="162.447" height="4.10626" transform="rotate(4.47582 20.6097 83.4125)" fill="#9378DF"/>
<rect x="21.7163" y="69.2768" width="162.447" height="4.10626" transform="rotate(4.47582 21.7163 69.2768)" fill="#9378DF"/>
<rect x="0.918335" y="117.951" width="10.3573" height="120.01" transform="rotate(-85.5242 0.918335 117.951)" fill="white"/>
<rect x="0.763306" y="119.931" width="10.3573" height="120.01" transform="rotate(-85.5242 0.763306 119.931)" fill="#CADD86"/>
<rect x="5.62952" y="57.7656" width="11.1364" height="120.01" transform="rotate(-85.5242 5.62952 57.7656)" fill="#CADD86"/>
<rect x="58.5372" y="50.7413" width="16.6731" height="61.1435" transform="rotate(4.47582 58.5372 50.7413)" fill="#89A426"/>
<rect x="58.3396" y="50.7258" width="13.5943" height="73.4875" transform="rotate(4.47582 58.3396 50.7258)" fill="#CADD86"/>
<rect x="59.2421" y="51.8322" width="11.9765" height="0.975119" transform="rotate(4.47582 59.2421 51.8322)" fill="white"/>
<rect x="81.7373" y="46.5438" width="5" height="37" transform="rotate(4.47582 81.7373 46.5438)" fill="#89A426"/>
<rect x="81.0076" y="63.5043" width="5.27014" height="19.986" transform="rotate(4.47582 81.0076 63.5043)" fill="#89A426"/>
<rect x="81.8933" y="44.5499" width="5" height="8" transform="rotate(4.47582 81.8933 44.5499)" fill="#89A426"/>
<rect x="51.0114" y="42.1237" width="31.5733" height="39.0126" transform="rotate(4.47582 51.0114 42.1237)" fill="#CADD86"/>
<rect x="51.0114" y="42.1237" width="31.5733" height="0.975119" transform="rotate(4.47582 51.0114 42.1237)" fill="white"/>
<path fill-rule="evenodd" clip-rule="evenodd" d="M67.2531 69.9773C68.9666 69.1987 70.216 67.5365 70.3732 65.5273C70.6035 62.5857 68.4055 60.0143 65.4639 59.7841C62.5222 59.5538 59.9509 61.7518 59.7206 64.6934C59.5634 66.7026 60.5389 68.539 62.1104 69.5747L61.4275 78.2984L66.5702 78.701L67.2531 69.9773Z" fill="#403F76"/>
<path fill-rule="evenodd" clip-rule="evenodd" d="M65.0867 59.7677C63.3283 60.5818 62.049 62.2963 61.887 64.3656C61.7239 66.4489 62.7355 68.3532 64.365 69.4271L63.6569 78.4729L61.4276 78.2984L62.1104 69.5747C60.5389 68.539 59.5634 66.7026 59.7207 64.6934C59.9411 61.8783 62.3055 59.7442 65.0867 59.7677Z" fill="#89A426"/>
<rect x="8.83093" y="57.8499" width="16.6731" height="50.1776" transform="rotate(4.47582 8.83093 57.8499)" fill="#89A426"/>
<rect x="6.49817" y="46.6678" width="14.5532" height="73.4875" transform="rotate(4.47582 6.49817 46.6678)" fill="#CADD86"/>
<rect x="7.40063" y="47.7742" width="11.9765" height="0.975119" transform="rotate(4.47582 7.40063 47.7742)" fill="white"/>
<rect x="115.011" y="55.1619" width="16.6731" height="63.1302" transform="rotate(4.47582 115.011 55.1619)" fill="#89A426"/>
<rect x="111.823" y="54.9123" width="14.5532" height="73.4875" transform="rotate(4.47582 111.823 54.9123)" fill="#CADD86"/>
<rect x="112.725" y="56.0188" width="11.9765" height="0.975119" transform="rotate(4.47582 112.725 56.0188)" fill="white"/>
<rect width="3.19823" height="50.7766" transform="matrix(-0.99695 -0.0780384 -0.0780384 0.99695 174.844 71.0112)" fill="#CADD86"/>
<rect width="16.6731" height="73.4875" transform="matrix(-0.99695 -0.0780384 -0.0780384 0.99695 192.335 61.2146)" fill="#89A426"/>
<rect width="16.6731" height="73.4875" transform="matrix(-0.99695 -0.0780384 -0.0780384 0.99695 142.764 57.3344)" fill="#89A426"/>
<rect width="11.1317" height="49.7221" transform="matrix(0.0780384 -0.99695 -0.99695 -0.0780384 174.844 71.0112)" fill="#89A426"/>
<path d="M170.881 121.633L167.866 118.388L138.167 116.063L137.933 119.054L170.881 121.633Z" fill="white"/>
<rect width="11.5791" height="49.7221" transform="matrix(0.0780384 -0.99695 -0.99695 -0.0780384 169.978 133.177)" fill="#89A426"/>
<path d="M86.3319 51.9188L86.8782 44.9401L90.7221 47.0909L90.3197 52.2309L86.3319 51.9188Z" fill="#4B5B0F"/>
<path d="M85.3954 63.8822L86.2538 52.9157L90.2416 53.2279L89.3832 64.1943L85.3954 63.8822Z" fill="#4B5B0F"/>
<rect x="86.2271" y="64.0745" width="24.8026" height="7.46149" transform="rotate(4.47582 86.2271 64.0745)" fill="#9378DF"/>
<rect x="25.4402" y="59.3163" width="24.1515" height="7.46149" transform="rotate(4.47582 25.4402 59.3163)" fill="#9378DF"/>
<rect x="141.896" y="68.4321" width="29.8508" height="7.46149" transform="rotate(4.47582 141.896 68.4321)" fill="#9378DF"/>
<path d="M69.4725 82.7007L69.2247 85.8665L55.6719 84.8057L55.9197 81.6398L69.4725 82.7007Z" fill="#89A426"/>
<path d="M72.7212 82.9549L72.5166 85.568L69.1661 85.8619L69.4139 82.6961L72.7212 82.9549Z" fill="#89A426"/>
<rect x="185.178" y="62.6682" width="3.74089" height="67.0473" transform="rotate(4.47582 185.178 62.6682)" fill="white"/>
<path d="M123.888 127.514L126.174 123.941L183.781 128.45L183.489 132.179L123.888 127.514Z" fill="white"/>
<rect x="85.3954" y="63.8822" width="4" height="23" transform="rotate(4.47582 85.3954 63.8822)" fill="#403F76"/>
<path d="M84.8315 83.8992L84.5974 86.8901L72.634 85.9536L72.8681 82.9628L84.8315 83.8992Z" fill="#403F76"/>
</svg>
